<svg id="Layer_1" data-name="Layer 1" xmlns="http://www.w3.org/2000/svg" viewBox="0 0 153 86"><defs><style>.cls-1{fill:#000;}.cls-2{fill:#3fae2a;}</style></defs><title>Logo RGB Rev</title><path class="cls-1" d="M69.7,63V26.95H64.75V39.8H48.23c-6.85,0-10.78,3.91-10.78,10.71V67.88c0,10,6.73,10.78,14.85,10.78H59c3.54,0,6.1-.84,7.83-2.57,2.92-2.93,2.91-7.85,2.89-13.06M42.4,50.51c0-4,1.74-5.77,5.83-5.77H64.81V64.16c0,2.65,0,6.67-1.47,8.12A5.87,5.87,0,0,1,59,73.73H50.11c-1.89,0-4-.07-5.49-.89s-2.22-2.42-2.22-5Z"/><path class="cls-1" d="M33.18,45.12V40.18H15.84V26.88H11v41.4c0,4,1.41,6.57,3.25,8.13,2.77,2.34,8.39,2.32,8.39,2.32H33.09v-4.8s-2.31-.06-10.33-.06c-3.2,0-4.59-.46-5.78-2s-1.07-5-1.07-5V61.67h0l-.06-16.54Z"/><path class="cls-1" d="M95.54,56.38c-3.57-.06-7.16-.06-10.63-.06s-5.77-2.42-5.77-6c0-4.5,3.14-5.45,5.77-5.45H95.09c2.87,0,5,.44,7.19,3.44l.28.38,3.93-3-.28-.37-.34-.47c-.28-.38-.56-.78-.87-1.12-3-3.9-8.9-3.81-12.36-3.81H84.71a10.46,10.46,0,0,0-8,3.16,10.35,10.35,0,0,0-2.58,7c0,5.44,3.77,11.23,10.76,11.23l3.52,0,3.53,0c1.31,0,2.46,0,3.5.06,3.95.17,5.79,2.23,5.79,6.47s-1.79,6.15-5.64,6.15H85.91c-3.26,0-5.47-.51-7.82-3.69l-.28-.38-4,3,.24.36a15.13,15.13,0,0,0,1.23,1.62c2.79,3.6,7,3.94,10.72,3.94h9.72c6.52,0,10.57-4.23,10.57-11s-4.12-11.22-10.77-11.41"/><path class="cls-2" d="M124.72,6.2a17.89,17.89,0,1,0,17.89,17.89A17.91,17.91,0,0,0,124.72,6.2m0,32.5a14.51,14.51,0,0,1-8.28-2.58,13,13,0,0,0,4,.62,13.17,13.17,0,1,0,0-26.34c-.28,0-.57,0-.86,0a14.61,14.61,0,1,1,5.16,28.28m-.17-20.8a5.66,5.66,0,1,1-5.66,5.66,5.67,5.67,0,0,1,5.66-5.66m-4.12-4.23a9.83,9.83,0,0,1,4.23,1h-.11a8.94,8.94,0,0,0,0,17.88h.11a9.89,9.89,0,1,1-4.23-18.84"/></svg>
